<svg xmlns="http://www.w3.org/2000/svg" viewBox="0 0 52.476 52.475">
  <defs>
    <style>
      .cls-1 {
        stroke: #fff;
        stroke-width: 0.5px;
      }
    </style>
  </defs>
  <g id="noun_Alarm_730924" transform="translate(-8.45 -8.45)">
    <g id="Group_4" data-name="Group 4" transform="translate(8.7 8.7)">
      <path id="Path_3" data-name="Path 3" class="cls-1" d="M47.853,76.053A4.149,4.149,0,0,0,52.006,71.9H43.7A4.19,4.19,0,0,0,47.853,76.053Z" transform="translate(-21.677 -32.132)"/>
      <path id="Path_4" data-name="Path 4" class="cls-1" d="M52.044,33.211a10.172,10.172,0,0,0-2.706-7.488A9.9,9.9,0,0,0,43.3,22.891v-.566a1.825,1.825,0,1,0-3.65,0v.629c-4.845.818-8.18,4.782-8.306,10.194v8.117L27,50.7H56.26l-4.216-9.439ZM32.726,46.991l2.265-4.971V33.148c.126-4.216,2.643-6.8,6.733-6.8A6.8,6.8,0,0,1,46.7,28.177a6.584,6.584,0,0,1,1.7,4.908v8.872l2.265,4.971H32.726Z" transform="translate(-15.485 -13.075)"/>
      <path id="Path_5" data-name="Path 5" class="cls-1" d="M34.688,8.7A25.988,25.988,0,1,0,60.675,34.688,26,26,0,0,0,34.688,8.7Zm0,48.326A22.338,22.338,0,1,1,57.026,34.688,22.343,22.343,0,0,1,34.688,57.026Z" transform="translate(-8.7 -8.7)"/>
    </g>
  </g>
</svg>
