<svg xmlns="http://www.w3.org/2000/svg" viewBox="0 0 52.477 52.475">
  <defs>
    <style>
      .cls-1 {
        stroke: #fff;
        stroke-width: 0.5px;
      }
    </style>
  </defs>
  <g id="Group_97" data-name="Group 97" transform="translate(-20036.25 -10828.25)">
    <g id="Group_96" data-name="Group 96" transform="translate(20047 10838.978)">
      <path id="Path_11" data-name="Path 11" d="M6.806,30.038H.939A.939.939,0,0,1,0,29.1V23.232a2.234,2.234,0,0,1,.652-1.573L21.658.653a2.277,2.277,0,0,1,3.144,0l4.582,4.582a2.223,2.223,0,0,1,0,3.144L8.378,29.387A2.206,2.206,0,0,1,6.806,30.038ZM1.877,28.161H6.806a.343.343,0,0,0,.245-.1L28.058,7.053a.347.347,0,0,0,0-.49L23.476,1.98a.292.292,0,0,0-.489,0L1.979,22.987a.348.348,0,0,0-.1.245Z"/>
      <path id="Path_12" data-name="Path 12" d="M26.513,11.088a.936.936,0,0,1-.664-.275l-5.12-5.12a.939.939,0,0,1,1.327-1.327l5.12,5.12a.939.939,0,0,1-.664,1.6Z" transform="translate(-1.255 -0.25)"/>
      <path id="Path_13" data-name="Path 13" d="M6.817,27.755a.937.937,0,0,1-.751-.375A8.514,8.514,0,0,0,4.375,25.69a.939.939,0,0,1,1.128-1.5,10.383,10.383,0,0,1,2.063,2.064.938.938,0,0,1-.749,1.5Z" transform="translate(-0.245 -1.471)"/>
    </g>
    <path id="Path_5" data-name="Path 5" class="cls-1" d="M34.688,8.7A25.988,25.988,0,1,0,60.675,34.688,26,26,0,0,0,34.688,8.7Zm0,48.326A22.338,22.338,0,1,1,57.026,34.688,22.343,22.343,0,0,1,34.688,57.026Z" transform="translate(20027.801 10819.8)"/>
  </g>
</svg>
