<svg xmlns="http://www.w3.org/2000/svg" viewBox="0 0 51.976 51.976">
  <g id="noun_profile_963218" transform="translate(-3.3 -3.3)">
    <g id="Group_3" data-name="Group 3" transform="translate(3.3 3.3)">
      <g id="Group_2" data-name="Group 2">
        <path id="Path_1" data-name="Path 1" d="M29.288,3.3A25.988,25.988,0,1,0,55.275,29.288,26.053,26.053,0,0,0,29.288,3.3ZM15.858,47.31A15.826,15.826,0,0,1,29.4,39.462a15.622,15.622,0,0,1,13.488,7.732,22.414,22.414,0,0,1-27.034.116Zm29.65-2.442a18.9,18.9,0,0,0-16.1-8.837,19.239,19.239,0,0,0-16.162,8.953,22.469,22.469,0,1,1,32.267-.116Z" transform="translate(-3.3 -3.3)"/>
        <path id="Path_2" data-name="Path 2" d="M41.344,21.7a9.244,9.244,0,1,0,9.244,9.244A9.267,9.267,0,0,0,41.344,21.7Zm0,14.941A5.756,5.756,0,1,1,47.1,30.886,5.769,5.769,0,0,1,41.344,36.641Z" transform="translate(-15.356 -11.003)"/>
      </g>
    </g>
  </g>
</svg>
